<?xml version="1.0" encoding="utf-8"?>
<!-- Generator: Adobe Illustrator 24.0.0, SVG Export Plug-In . SVG Version: 6.00 Build 0)  -->
<svg version="1.0" id="Layer_1" xmlns="http://www.w3.org/2000/svg" xmlns:xlink="http://www.w3.org/1999/xlink" x="0px" y="0px"
	 viewBox="0 0 202 90" style="enable-background:new 0 0 202 90;" xml:space="preserve">
<style type="text/css">
	.st0{fill:#6FADC6;}
</style>
<title>MyBlog</title>
<desc>Created with Sketch.</desc>
<g>
	<g>
		<path class="st0" d="M29.6,77.3c-0.1,0.1-0.2,0.1-0.2,0.1c-0.1,0-0.2,0-0.5,0.1c-0.6,0.1-1.2,0.1-2,0.1c-0.8-0.1-1.6-0.1-2.3-0.3
			c-0.8-0.1-1.4-0.3-2-0.6c-0.6-0.2-0.9-0.5-1.1-0.7c-0.1-0.6-0.3-1.1-0.4-1.8c-0.1-0.6-0.2-1.2-0.3-1.8c-0.8-4.6-1.3-9.4-1.5-14.5
			c-0.2-5.1,0-10.7,0.5-16.7c0.1-0.6,0.1-1.4,0.1-2.3c0-0.9,0.1-1.9,0.1-2.9c-0.8,0.9-1.8,2.4-2.8,4.3c-1,1.9-2.1,4.2-3.2,6.7
			c-1.1,2.6-2.1,5.3-3.1,8.4c-1,3-1.9,6-2.6,9.1s-1.3,6-1.7,8.9c-0.4,2.9-0.5,5.6-0.3,8c-2.1-0.2-3.5-0.6-4.4-1
			c-0.9-0.4-1.4-1.1-1.5-1.9c-0.1-0.7-0.1-1.8,0.1-3.2c0.2-1.4,0.6-3.1,1.1-5.1c0.5-2,1.1-4.2,1.9-6.7c0.8-2.5,1.7-5.1,2.6-8
			c1.1-3.3,2.2-6.3,3.3-9.2c1.1-2.9,2.2-5.5,3.4-7.9c1.1-2.4,2.3-4.5,3.5-6.3c1.2-1.8,2.4-3.2,3.7-4.3c0.6-0.1,1.4-0.1,2.4,0
			c1,0.1,2,0.3,3,0.5c1,0.2,1.9,0.5,2.7,0.8s1.2,0.6,1.4,0.9c-0.4,1.2-0.7,3.1-1.1,5.5c-0.4,2.4-0.7,5.1-1,8.2
			c-0.3,3-0.5,6.2-0.6,9.6c-0.1,3.4-0.2,6.6,0,9.6c0.5-2.4,1.2-4.9,2-7.6c0.8-2.6,1.7-5.3,2.7-7.9c1-2.6,2-5.2,3-7.7
			c1-2.5,2.1-4.8,3.2-6.9c1.1-2.1,2.1-3.9,3-5.5c1-1.6,1.8-2.8,2.7-3.6c0.6-0.1,1.4-0.1,2.4,0c1,0.1,2,0.3,3,0.5
			c1,0.2,1.9,0.5,2.7,0.8c0.8,0.3,1.2,0.6,1.4,0.9c-0.9,2.5-1.5,5.6-1.9,9.1c-0.4,3.5-0.6,7.2-0.6,10.9c0,3.8,0.1,7.5,0.4,11.2
			c0.3,3.7,0.7,6.9,1.2,9.8c0.2,0.9,0.3,1.9,0.5,2.9c0.2,1,0.4,2.1,0.7,3.2c-0.6,0.1-1.3,0.1-2.1,0.1c-0.8,0-1.6-0.1-2.4-0.2
			c-0.8-0.1-1.5-0.3-2.2-0.5c-0.7-0.2-1.2-0.5-1.5-0.8c-0.1-0.6-0.3-1.1-0.4-1.8s-0.2-1.2-0.3-1.8c-0.8-4.6-1.3-9.4-1.5-14.5
			c-0.2-5.1,0-10.7,0.5-16.7c0.1-0.6,0.1-1.4,0.1-2.4c0-1,0.1-2.1,0.1-3.2c-1,0.8-2.1,2.1-3.3,4c-1.2,1.9-2.3,4.1-3.4,6.6
			c-1.1,2.6-2.1,5.4-3,8.4c-0.9,3.1-1.7,6.2-2.4,9.3c-0.6,3.1-1.1,6.2-1.4,9.2C29.3,72.1,29.3,74.8,29.6,77.3z"/>
		<path class="st0" d="M82.3,53.6c-0.4,3.1-0.9,6-1.4,8.6s-1.1,5-1.8,7.3c-0.7,2.2-1.5,4.3-2.4,6.3c-0.9,1.9-2,3.8-3.2,5.6
			c-1.5,2.3-3.2,4.1-5,5.5c-1.8,1.4-3.7,2.3-5.7,2.6c-1,0.2-2,0.2-3.1,0.2c-1,0-2-0.2-3-0.4c-0.9-0.2-1.8-0.5-2.6-0.9
			c-0.8-0.4-1.3-0.8-1.7-1.4c-0.1-0.5,0.1-1,0.6-1.4c0.6,0.4,1,0.6,1.4,0.8c0.4,0.2,0.7,0.3,1.1,0.4c0.3,0.1,0.7,0.2,1,0.1
			c0.4,0,0.8-0.1,1.2-0.1c2.3-0.4,4.5-1.5,6.4-3.2c2-1.8,3.7-4.1,5.3-6.9c1.5-2.9,2.8-6.2,3.8-10.1c1-3.8,1.7-8.1,2-12.7
			c-0.4,0.9-0.9,2-1.4,3.3s-1.2,2.6-1.9,4c-0.7,1.3-1.5,2.5-2.3,3.6c-0.8,1.1-1.7,1.9-2.6,2.4c-0.7,0.1-1.4,0.1-2.1,0
			c-0.8-0.1-1.5-0.3-2.2-0.6c-0.7-0.3-1.3-0.7-1.9-1.2c-0.6-0.5-1-1.1-1.3-1.8c-0.2-1.2-0.3-2.1-0.4-2.9c0-0.7,0-1.5,0-2.4
			c0.1-1.6,0.3-3.5,0.7-5.5s0.9-4.2,1.5-6.2s1.4-4,2.2-5.9c0.9-1.9,1.9-3.4,2.9-4.5c0.3-0.1,0.7-0.1,1.2-0.1c0.5,0,1,0,1.6,0.1
			c0.6,0.1,1.1,0.2,1.6,0.3c0.5,0.1,1,0.4,1.4,0.7c-0.4,0.5-1.1,2-2.2,4.6c-1.1,2.6-2.2,6.2-3.2,10.9c-0.1,0.5-0.3,1.2-0.4,2.1
			s-0.3,1.8-0.3,2.8c-0.1,1-0.2,1.9-0.2,2.9c0,0.9,0,1.7,0.1,2.2c0.1,0.3,0.2,0.6,0.3,0.7c0.1,0.1,0.2,0.3,0.3,0.3
			c0.7-0.3,1.6-1,2.6-2.3s2.1-3.2,3.3-5.8c0.7-1.6,1.4-3.3,1.9-4.8c0.6-1.6,1.1-3.2,1.6-4.8s1.1-3.3,1.7-5c0.6-1.7,1.2-3.4,1.9-5.2
			c0.5-0.1,1.1-0.1,1.7-0.1c0.6,0,1.2,0.1,1.9,0.1c0.6,0.1,1.1,0.2,1.6,0.3c0.5,0.1,0.8,0.3,1.1,0.5c-0.8,2.9-1.5,5.7-2.2,8.5
			C83.2,47.9,82.6,50.7,82.3,53.6z"/>
		<path class="st0" d="M126.9,20.8c0.4,2.5,0.1,4.9-0.9,7.1c-1,2.2-2.6,4.2-4.8,5.9c1.7,0.8,3.2,1.9,4.4,3.2c1.2,1.4,1.9,3,2.3,4.8
			c0.4,2.2,0.1,4.5-0.8,6.9c-0.9,2.4-2.4,4.6-4.3,6.6s-4.2,3.8-6.8,5.3c-2.6,1.5-5.4,2.5-8.3,3c-3.2,0.6-6.1,0.4-8.7-0.3
			c-2.6-0.8-4.8-2.2-6.5-4.1c0.2-1.3,0.5-2.9,0.8-4.8c0.4-1.9,0.8-4,1.2-6.1c0.5-2.2,0.9-4.3,1.4-6.5c0.5-2.1,1-4.1,1.4-5.8
			c0.9-3.7,1.8-6.8,2.6-9.3c0.8-2.5,1.6-4.5,2.4-6c-2.1,1.1-4,2.2-5.7,3.4c-1.7,1.2-2.9,2.3-3.6,3.2c-0.4-0.2-0.9-0.5-1.3-0.9
			c-0.5-0.4-0.9-0.9-1.4-1.4c-0.5-0.5-0.8-1.1-1.2-1.7c-0.3-0.6-0.6-1.1-0.7-1.6c0.9-0.9,2.2-1.9,3.8-2.8c1.6-1,3.3-1.9,5.2-2.7
			c1.9-0.8,3.9-1.6,5.9-2.2c2-0.7,4-1.2,5.9-1.5c4.9-0.9,8.9-0.6,12,0.9C124.4,14.8,126.3,17.3,126.9,20.8z M106.2,39.4
			c-0.8-0.2-1.6-0.7-2.4-1.3c-0.6,2.2-1.1,4.4-1.6,6.6c-0.5,2.1-0.9,4.1-1.2,5.9c-0.3,1.8-0.6,3.4-0.8,4.7c-0.2,1.3-0.2,2.3-0.2,2.9
			c0.6,0.2,1.4,0.3,2.2,0.4c0.8,0,1.8-0.1,3-0.3c2.8-0.5,5.3-1.3,7.7-2.6c2.4-1.2,4.4-2.7,6.1-4.3c1.7-1.7,2.9-3.4,3.8-5.4
			c0.8-1.9,1.1-3.8,0.8-5.7c-0.5-2.7-2-4.4-4.5-5.2c-2.9,1.9-6.4,3.1-10.4,3.8c-0.6,0.1-1,0.2-1.3,0.2
			C107,39.4,106.6,39.5,106.2,39.4z M114.3,16.2c-0.9,0.2-1.8,0.4-2.7,0.6c-0.9,0.3-1.9,0.6-2.9,1c0.2,0.1,0.4,0.3,0.5,0.4
			c0.1,0.2,0.3,0.3,0.4,0.5c-0.3,0.6-0.6,1.3-1,2.4c-0.4,1-0.8,2.2-1.2,3.6c-0.4,1.4-0.9,2.9-1.3,4.5c-0.4,1.6-0.9,3.3-1.3,5
			c0.7-0.3,1.5-0.6,2.5-0.8c1-0.3,2-0.5,2.9-0.7c0.5-0.1,1.1-0.2,1.6-0.2c0.5,0,1-0.1,1.5-0.1c1.9-0.7,3.6-1.5,5-2.4
			c1.5-0.9,2.7-1.9,3.7-2.9c1-1,1.7-2.1,2.1-3.2c0.4-1.1,0.5-2.3,0.3-3.4c-0.3-2-1.4-3.3-3.1-4C119.6,15.8,117.3,15.7,114.3,16.2z"
			/>
		<path class="st0" d="M134.6,50.1c-0.3-1.8-0.3-4.4,0-7.8s0.8-7.4,1.6-12c1.3-7.3,2.7-13.5,4.1-18.4c1.4-5,2.9-8.9,4.6-11.9
			c0.5,0,1.1,0.1,1.9,0.3c0.8,0.2,1.5,0.4,2.3,0.7c0.8,0.3,1.5,0.6,2.1,0.9c0.6,0.3,1,0.6,1.2,0.8c-2.5,4.3-4.6,8.8-6.2,13.6
			c-1.6,4.7-3,10.1-4,16c-0.9,5.1-1.4,9.7-1.6,13.7c-0.2,4-0.1,7.3,0.4,9.9c0.1,0.7,0.2,1.1,0.2,1.3c0,0.2,0.1,0.3,0.1,0.5
			c-0.6,0-1.1,0-1.5-0.2c-0.4-0.1-0.8-0.3-0.9-0.6c-0.1-0.2-0.4-0.4-0.8-0.8c-0.4-0.3-0.8-0.6-1.1-0.7c-0.4-0.2-0.8-0.8-1.3-1.8
			S134.8,51.4,134.6,50.1z"/>
		<path class="st0" d="M158.6,52.1c-2.4,0.2-4.4-0.5-6.1-2.1c-1.7-1.5-2.8-3.7-3.3-6.5c-0.3-1.6-0.3-3.4-0.2-5.2
			c0.2-1.8,0.6-3.7,1.2-5.5c0.6-1.8,1.4-3.6,2.4-5.2c1-1.7,2.1-3.2,3.3-4.5c1.9-2.1,3.9-3.3,5.8-3.6c1.4,0.5,3,1.7,4.6,3.7
			c0.2,0,0.4-0.1,0.5-0.1c0.2,0,0.3-0.1,0.5-0.1c2.2-0.4,3.6,1.3,4.2,5.2c0.5,2.6,0.5,5.1,0,7.5c-0.4,2.4-1.2,4.7-2.4,6.9
			c-1.2,2.1-2.6,4-4.5,5.7C163,49.8,161,51.1,158.6,52.1z M158.3,32.3c-0.5,1.1-1,2.2-1.4,3.4c-0.4,1.2-0.8,2.4-1,3.6
			c-0.3,1.2-0.4,2.3-0.5,3.4c-0.1,1.1,0,2,0.1,2.8c0.2,1,0.5,1.9,1,2.7s0.9,1.3,1.4,1.3c1.8-0.7,3.3-1.8,4.6-3.2
			c1.3-1.4,2.4-3,3.2-4.9c0.8-1.9,1.4-3.9,1.6-6.1c0.3-2.2,0.2-4.5-0.2-6.9c-0.2-1.1-0.4-1.9-0.6-2.5c-0.2-0.6-0.5-1.1-0.9-1.5
			c-1.7,0.8-3.1,2-4.3,3.4C160.1,29.3,159.1,30.8,158.3,32.3z"/>
		<path class="st0" d="M170.3,66.5c0-0.2,0-0.5,0.1-0.7c0.1-0.2,0.3-0.5,0.4-0.7c0.6,0.4,1,0.6,1.4,0.8c0.4,0.2,0.8,0.3,1.1,0.4
			c0.3,0.1,0.7,0.2,1,0.1c0.3,0,0.7-0.1,1.2-0.1c2.1-0.4,4-1.3,5.7-2.7s3.2-3.4,4.5-5.8c1.3-2.4,2.4-5.3,3.2-8.6
			c0.8-3.3,1.5-7,1.8-11c-0.4,0.6-0.9,1.2-1.5,1.9c-0.6,0.7-1.3,1.4-1.9,2.1c-0.7,0.7-1.4,1.3-2,1.9c-0.7,0.6-1.3,1-1.8,1.3
			c-0.7,0-1.4-0.2-2.1-0.5c-0.7-0.4-1.3-0.9-1.9-1.5c-0.6-0.6-1.1-1.3-1.5-2.2c-0.4-0.8-0.7-1.7-0.9-2.7c-0.3-1.6-0.3-3.3,0-5
			c0.3-1.8,0.8-3.5,1.5-5.3c0.7-1.8,1.6-3.5,2.6-5.2c1.1-1.7,2.3-3.1,3.6-4.5c1.3-1.3,2.7-2.4,4.1-3.3c1.4-0.9,2.9-1.5,4.3-1.7
			c1.4-0.3,2.5-0.1,3.4,0.3c0.8,0.5,1.5,1.4,2.1,2.7c-0.5-0.2-1.1-0.2-1.8-0.1c-1,0.2-2,0.8-3.2,1.8c-1.1,1-2.3,2.2-3.4,3.7
			c-1.1,1.5-2.2,3.1-3.2,5c-1,1.8-1.9,3.7-2.6,5.5c-0.7,1.8-1.2,3.6-1.6,5.3c-0.4,1.7-0.4,3.2-0.2,4.4c0,0.3,0.1,0.5,0.2,0.5
			c0.1,0.1,0.1,0.1,0.2,0.1c0.4-0.1,0.8-0.4,1.4-0.9c0.6-0.5,1.2-1.2,1.9-1.9c0.7-0.8,1.4-1.6,2.1-2.6c0.7-1,1.4-2,2-3
			c1.4-2.3,2.6-4.7,3.6-7.4c1-2.7,1.8-5.2,2.2-7.7c1.1-0.1,2.1-0.1,3,0c0.9,0.1,1.5,0.3,1.9,0.6c-0.8,3.4-1.5,6.3-1.9,8.6
			c-0.5,2.3-0.8,4.3-1.2,6.1c-0.6,3.1-1.1,6-1.7,8.6c-0.5,2.6-1.1,5-1.7,7.2c-0.6,2.2-1.4,4.3-2.2,6.3c-0.8,2-1.9,3.9-3,5.8
			c-0.6,0.9-1.2,1.7-2,2.5c-0.8,0.7-1.6,1.4-2.4,2s-1.7,1-2.5,1.4c-0.8,0.4-1.6,0.6-2.4,0.7c-1,0.2-2,0.2-3.1,0.2
			c-1.1,0-2.1-0.2-3-0.4c-0.9-0.2-1.8-0.5-2.5-0.9C171.2,67.5,170.7,67.1,170.3,66.5z"/>
	</g>
</g>
<rect x="-566" y="343" style="fill:none;" width="3" height="2"/>
</svg>
